<svg fill="none" height="25" viewBox="0 0 25 25" width="25" xmlns="http://www.w3.org/2000/svg"><path clip-rule="evenodd" d="m5.20513 12.5c1.45783 2.2936 3.75157 4.4 7.29487 4.4s5.8371-2.1064 7.2949-4.4c-1.4578-2.2936-3.7516-4.4-7.2949-4.4s-5.83704 2.1064-7.29487 4.4zm-1.21962-.3087c1.55423-2.59037 4.21628-5.2913 8.51449-5.2913 4.2982 0 6.9603 2.70093 8.5145 5.2913l.1852.3087-.1852.3087c-1.5542 2.5904-4.2163 5.2913-8.5145 5.2913-4.29821 0-6.96026-2.7009-8.51449-5.2913l-.18522-.3087zm8.51449-2.7913c-1.7121 0-3.1 1.3879-3.1 3.1s1.3879 3.1 3.1 3.1 3.1-1.3879 3.1-3.1-1.3879-3.1-3.1-3.1z" fill="#121923" fill-rule="evenodd"/></svg>